<?xml version="1.0" encoding="utf-8"?>
<!-- Generator: Adobe Illustrator 27.1.1, SVG Export Plug-In . SVG Version: 6.00 Build 0)  -->
<svg version="1.1" id="Laag_1" xmlns="http://www.w3.org/2000/svg" xmlns:xlink="http://www.w3.org/1999/xlink" x="0px" y="0px"
	 viewBox="0 0 244.1 121.5" style="enable-background:new 0 0 244.1 121.5;" xml:space="preserve">
<style type="text/css">
	.st0{fill:none;stroke:#292D32;stroke-width:50;stroke-linecap:round;stroke-linejoin:round;stroke-miterlimit:133.3333;}
	.st1{fill:none;stroke:#000000;stroke-width:42;stroke-linecap:round;stroke-linejoin:round;stroke-miterlimit:133.3333;}
</style>
<path id="XMLID_00000170240378732047108120000015383049154861456260_" d="M202.9,49.3C181.6,31.8,166,19,150.3,6.1
	c0.9-1.8,1.7-3.7,2.6-5.5c4,0,8.9-1.5,11.8,0.2c21.7,13.5,43.6,26.7,64.1,41.7c21.9,16.1,20.1,28.5-4.6,41.3
	c-23.1,11.9-46.6,23.3-75.4,37.7c9-27.1,30.4-31.6,47.8-48c-10.9-0.9-18.3-1.7-25.8-2c-45.3-1.5-90.6-2.5-135.9-4.5
	C24.2,66.6,13.6,62.6,0,59.5c11.7-15,24.5-10.8,35.6-10.8c48.2-0.2,96.4,0.4,144.6,0.6C185.5,49.3,190.9,49.3,202.9,49.3z"/>
</svg>
