<?xml version="1.0" encoding="utf-8"?>
<!-- Generator: Adobe Illustrator 27.1.1, SVG Export Plug-In . SVG Version: 6.00 Build 0)  -->
<svg version="1.1" id="Laag_1" xmlns="http://www.w3.org/2000/svg" xmlns:xlink="http://www.w3.org/1999/xlink" x="0px" y="0px"
	 viewBox="0 0 275.3 242" style="enable-background:new 0 0 275.3 242;" xml:space="preserve">
<style type="text/css">
	.st0{fill:none;stroke:#292D32;stroke-width:50;stroke-linecap:round;stroke-linejoin:round;stroke-miterlimit:133.3333;}
	.st1{fill:none;stroke:#000000;stroke-width:42;stroke-linecap:round;stroke-linejoin:round;stroke-miterlimit:133.3333;}
</style>
<g>
	<g>
		<path d="M269.2,135.8l-100,100c-4.1,4.1-9.5,6.2-14.9,6.2c-5.4,0-10.8-2-14.8-6.2c-8.2-8.2-8.2-21.5,0-29.7l64.1-64.2H21
			c-11.6,0-21-9.4-21-21s9.4-21,21-21h182.6l-64.1-64.2c-8.2-8.2-8.2-21.5,0-29.7c8.2-8.2,21.5-8.2,29.7,0l100,100
			C277.4,114.3,277.4,127.7,269.2,135.8z"/>
	</g>
</g>
</svg>
