<svg width="57" height="28" viewBox="0 0 57 28" fill="none" xmlns="http://www.w3.org/2000/svg">
<g clip-path="url(#clip0_17_25)">
<path d="M47.385 11.3469C42.4051 7.31972 38.7495 4.36734 35.1077 1.41496C35.3146 0.993192 35.5077 0.571423 35.7147 0.149655C36.6389 0.149655 37.7977 -0.204087 38.4598 0.204076C43.5225 3.30612 48.6404 6.34013 53.4272 9.80952C58.545 13.5102 58.1312 16.3809 52.3512 19.3197C46.9574 22.068 41.4809 24.6803 34.7352 28C36.832 21.7551 41.8257 20.7211 45.8952 16.9524C43.357 16.7619 41.6188 16.5578 39.8807 16.5034C29.3001 16.1633 18.7195 15.9456 8.15271 15.4694C5.64206 15.3605 3.18659 14.4354 0 13.7279C2.73136 10.2721 5.73863 11.2381 8.30445 11.2245C19.561 11.1837 30.8175 11.3061 42.0741 11.3741C43.3294 11.3741 44.5847 11.3741 47.385 11.3741V11.3469Z" fill="white"/>
</g>
<defs>
<clipPath id="clip0_17_25">
<rect width="57" height="28" fill="white"/>
</clipPath>
</defs>
</svg>
