<?xml version="1.0" encoding="utf-8"?>
<!-- Generator: Adobe Illustrator 27.1.1, SVG Export Plug-In . SVG Version: 6.00 Build 0)  -->
<svg version="1.1" id="Laag_1" xmlns="http://www.w3.org/2000/svg" xmlns:xlink="http://www.w3.org/1999/xlink" x="0px" y="0px"
	 viewBox="0 0 808.8 1000" style="enable-background:new 0 0 808.8 1000;" xml:space="preserve">
<g id="nmWrMA_00000111899410320680848460000002007428480856408211_">
	<g>
		<path d="M753.4,624.9c1.4-5.5,2.6-10.6,3.9-16.5c5.3,0.9,9.4,2.1,13.9,3c1.5-7.3,2.5-14.5,4.2-21.4c0.5-2.8,2.5-5.3,4-7.7
			c1.5-2.4,4.5-4.8,4.5-7.1c0-5-1.5-9.9-2.5-15.3c2.9-0.5,5.4-0.9,9.3-1.8c-1.5-8.3-3.1-16.4-4.6-24.7c6.4,1.1,13.4,3.2,10.6-8.1
			c-1.6-5.7-0.8-12.2-1.2-18.9c11.2,1.4,11.8-4.8,10-13.3c-0.9-3.1-2.5-7.7-2-8.9c12.1-9.6-0.5-17-1.5-25.5
			c9.3-5.2,7.2-13.8-3.3-22.5c2.4-6.9,5.7-12.3,4.9-17.2c-0.5-6.3-4.2-12.3-7.2-19c2.5-1.2,6.1-2.5,10.4-4.3
			c-5-13-9.9-25.6-14.9-38.6c2-5.2,2.5-10.3,1.1-14.8c-2.6-8.5-5.3-17.4-10.3-24.7c-7.1-11-5.5-25.9-17.1-34.7
			c-5.7-4.2-12.6-10.8-12.7-16.2c0-10.7-5.9-10.4-12-12.1c-2.4-3.8-5.5-7.1-8.8-9.1c-9.2-5.8-17.9-11.7-27.1-16.4
			c-14-7.7-27-16.8-37.3-29.2c-1.8-2-5.6-1.9-8.6-2.9c4.9-11.5-5.8-13-10.9-13.5c-12.1-1.1-24.5,0.9-36.4,1
			c-5.1,0.3-10-1.6-14.6-0.7c-17.9,3.1-35.3,6.9-50.1,9.9c3.6-5.2,10.6-13,14.9-22.1c20.9-44.2,41.1-89.1,61.8-133.7
			c5.3-11.3-9-26-19.8-37.9c-29.3,91.9-65.3,152.7-119.6,232.6c-16.1-27.8-12.9-29.7-19.8-57.7c-3.6-13.5-8.4-28-16.6-39.1
			c-10-13.1-25.6-21.4-42-25.6c-4.5-1-9.1-0.1-13.7-0.2c-9.3,0.3-17.9-1.8-27-2.6c-4.8-0.3-10.5,2.8-14.7,1.2
			c-8.8-4.1-11-0.1-10.7,9.1c-6.8-9.3-12.6-12.4-21.1-5.6c-2.3,1.6-6.2,0.2-9.4,0.6c-7.6,1.5-18.8-5.7-20.1,7.9
			c-10.3,1.7-19.9,3.4-30.2,5c0.4,3.2,1.1,5.1,0.7,6.8c-0.1,1.9-0.8,3.4-0.8,3.4c-6-0.1-13.1-1.5-14.4,0.6
			c-5.2,8.7-12.9,10.5-22,10.4c-3.6,0.3-7.3,0.8-10.3,2.5c-9.1,5.7-18.1,11.8-26.3,18.7c-4.3,3.4-6.4,8.9-9.5,13.1
			c0.8,0.8,1.9,1.6,2.7,2.4c-19.5,5.8-22.8,9.6-21,18.9c-7.3,6.6-13.2,11.8-18.9,16.8c-1.2,1-2.6,2.2-3.6,2.9
			c-10.8,6.8-21.8,14-33.2,21.3c5,5,8.3,8.4,12,12.1c0.3,0.1,0.8,0,1.7-0.4c1.3-2,3-4.7,4.3-7.6c1.7,6.9-1,12.1-6.2,11.7
			c-7.9-1-27.3,10.2-30.2,17.3c1.7,0.4,3.7,1,6.2,1.4c-9.5,9-18.1,16.8-27.2,24.8c4,4.5,6.3,7.1,8.3,9.2
			c-5.7,7.3-10.9,13.6-15.6,19.5c4.8,6.1,8.8,10.6,13.2,16.1c-16.1-3.3-19.1,9.1-23,15.7c2.7,8.1,7.8,17,5.9,18.4
			c-10.1,10.2-10.2,22-10.8,34.7c4.4,0.5,7.9,1,10.9,1.2c-6.9,6.7-13.6,12.8-20.2,18.9c0.8,0.8,1.1,1.7,1.9,2.4
			c3.7-1.3,7.5-2.2,11.1-3.3c-2.1,3.6-5.8,5-7.4,7.7c-5.6,8.8-10.7,18-15.8,27.4c2.6,2.7,5.7,5.7,6.9,6.6
			c-7.3,5.8-13.6,11.2-20.3,16.5c3.4,4.2,5.6,6.8,7.9,9.4c-1.1-0.1-2.2-0.3-3.3-0.4C8.1,515.3,4.2,527.9,0,540.2
			c27.6,9.8,5.3,24.7,6.5,37.8c3.4,0.1,7.1,0.3,10.4,0.6l-0.2-0.5c8,2.6,5.8,8.1,3.6,13.5c-2.7,7.5-6.2,15.1-10,24
			c10.4,1.4,20.5,2.7,30.3,3.8c-12.5,6.4-15.2,16.2-14.5,28.8c5.1-1.1,9.3-1.8,15.1-2.9c-2.5,9.5-5.1,17.5-7.5,26
			c5.7,0,9.6-0.1,14.3-0.2l-11.5,24.8c5.4,0.6,8.7,1,11.5,1.5c0.4,2.5,0.6,5.3,0.7,7.6l312.7-134.8c11.3-4.7,24.3-21.9,30.7-32.4
			c14.9-26.3,10.4-50.2,47.4-62.4l192.1-76.2c27.2-8.4,25.6,16.5,19.8,19.1l-200.8,93.9c-6.7,3-10.1,10.2-7.5,16
			c1.1,2.4,3.2,4.6,5.9,5.4c3.6,1.3,7.5,1.2,11.3-0.5l196.4-91.8c16.2-7.7,29.2,17,11.6,25.3l-196.4,91.8
			c-6.4,3.1-9.8,10.4-7.1,16.2c2.6,5.8,10.1,7.8,17,4.5l201-93.5c5.6-3.1,25.8,12,1.9,27.2l-181.7,98.2
			c-33.5,21.1-48.8,1.4-79.5-3.3c-12-2.1-32-2.7-43.3,2.8l-0.5,0.2c29.9,65.5,103.9,209.6,131.4,266.4c0.8,1.5,1.5,2.6,1.8,4.3
			c3.6-6,5.5-13.5,16.4-7.3c2.6-8,4.7-15,7.1-22.7c3,3.3,5.8,6.5,9.4,10.1c4.1-8,8.1-15,12.7-23.2c3.8,3.3,7.6,6.6,11.3,10.2
			c5.4-8.2,10.7-16.4,15.7-24.8c3.3,2.7,6.8,5.1,10.8,8.1c6.2-9.3,12.1-17.7,17.9-26.1c2.5,0.4,5.5,1.4,8.3,1.9
			c1.5-6.6,3.1-12.3,4.6-18.9c3.3,1.2,6.7,2,10.6,3.4c2.6-11.4,5-22.2,7.4-33.2c2.4,1.5,5.2,3.6,7.7,5.5c3.3-8.8,6.5-16.5,9.4-24.3
			c1.3,0.6,2.7,0.9,3.9,1.4c-1.1-5.9-2.3-11.4-3.6-17c3.1,1.5,6.3,2.9,9.9,5c1.8-8,3.5-14.8,5.3-22c13.1,2.3,5.1-11.8,12.1-15.4
			c3.9,1.4,8.1,3,13.5,4.7c2.1-7.8,4.1-15.3,6.3-23.4c15.8,3.9,8.5-11.7,13.9-16.8c4.7,1.4,9.1,2.7,14.2,3.9
			c1.3-7,2.4-13.4,3.8-19.6c3.1-0.1,6.4-0.5,8.7-0.6C751.3,635,752.6,629.9,753.4,624.9z M253.7,557.9
			C193.4,457.7,133.1,311.8,227,265.1c12-5.7,14.2-4.9,19.3,8.7l100.7,272.9l-48.2,20.7C285.8,575.2,261.5,571,253.7,557.9z
			 M332.2,633.9L79.3,755.9c1.4,11,2.6,21.5,3.7,32.3c4-1.2,8-2.4,12.9-3.9c2.6,5.8,4.5,15.8,7.7,16.2c15.1,2,8.9,13.7,11.9,21.2
			c1.2,3.2,0.7,7.6,1.1,13.1c7.3-4.2,13.4-7.5,17-9.3c1.3,12.1,2.5,24.1,4.1,36.3c0.3,0.9,3.9,2.2,6.3,2.1c4.3-0.3,8.5-1,11.7-1.4
			c-2.3,5-7.3,10.8-7.7,16.7c-0.4,8.2,2.6,16.5,4.1,24.8c3.4-0.7,8.5-1.8,11.1-2.5c-0.2,10.2-0.4,19.7-0.1,29
			c4.1-2.3,6.7-3.8,9.3-5.2c-3.6,15.9-1.6,25.6,7.2,29.7c1.4,12.5,2.5,22.6,4,32.5c0.9,0.4,6.2-0.2,9.3-0.3
			c0.6,4.5,1.2,9.7,1.8,12.7c8.4-10.6,17.2-21.4,26.1-32.2c5.6,7.6,9.9,3.4,13.9-1.9c3.4-4.9,6.7-10.3,10.7-15.7
			c2.2,2.6,4.2,5,6.2,7.1c4.7-5.1,8.9-10,13.2-15.3c3.7,4.4,6.3,7.9,9.3,11.2c8.4-9.1,16.2-17.7,23.9-26c1.7,5.4,3.6,11.2,5.6,17.5
			c12.5-8.7,23.1-16,33.9-23.6c2.5,5.4,3.7,9.4,5.7,14.1c10.5-7,19.9-13.3,29.8-19.8c9,16,16.5,1.6,25.3-0.9c2.7,4,5.6,7.6,9.2,12.3
			c8.6-8.6,16.9-16.6,25.5-25.2c2.2,1.8,4.8,3.7,7.8,6.3c3.1-5.8,5.9-11,9.2-16.4c1.6,2.3,3.4,4.3,5.1,6.2L332.2,633.9z"/>
		<path d="M17.1,578.5c0,0-0.5-0.3-0.5-0.3C16.6,578.2,17.1,578.5,17.1,578.5z"/>
	</g>
</g>
</svg>
