<svg width="20" height="20" viewBox="0 0 20 20" fill="none" xmlns="http://www.w3.org/2000/svg">
<path d="M0 17.387C0 12.4625 0 7.54433 0 2.61977C0.012837 2.57483 0.0320924 2.5363 0.0385109 2.49136C0.282413 1.02748 1.46983 0.00660959 2.96534 0.000189043C7.65083 -0.0062315 12.3363 -0.0062315 17.0218 0.00660959C17.3492 0.00660959 17.6893 0.057974 17.9974 0.160703C19.2362 0.571618 19.9936 1.66953 19.9936 3.005C19.9936 7.66632 19.9936 12.3276 19.9936 16.989C19.9936 17.0532 19.9936 17.1174 19.9872 17.1816C19.9037 18.318 19.371 19.1655 18.3504 19.6792C18.0488 19.8333 17.7022 19.891 17.3748 19.9938C15.6932 19.9938 14.018 19.9938 12.3363 19.9938C12.3363 17.6374 12.3363 15.2875 12.3363 12.9247C13.3376 12.9247 14.3132 12.9247 15.3017 12.9247C15.4942 11.7562 15.6932 10.5877 15.8858 9.40629C14.6855 9.40629 13.5109 9.40629 12.3427 9.40629C12.3427 8.60372 12.3427 7.82683 12.3427 7.03069C13.5237 7.03069 14.6983 7.03069 15.8729 7.03069C15.8729 5.84931 15.8729 4.68719 15.8729 3.51865C14.7048 3.51865 13.5558 3.51865 12.4005 3.51865C10.3594 3.52507 8.82542 5.066 8.819 7.10131C8.819 7.79473 8.819 8.49457 8.819 9.18799C8.819 9.25862 8.819 9.32924 8.819 9.41913C8.02311 9.41913 7.25289 9.41913 6.48267 9.41913C6.48267 10.5941 6.48267 11.7562 6.48267 12.9312C7.25931 12.9312 8.02952 12.9312 8.819 12.9312C8.819 15.3004 8.819 17.6503 8.819 20.0002C6.74583 20.0002 4.67908 20.0002 2.6059 20.0002C2.56739 19.9873 2.5353 19.9745 2.49679 19.9681C1.46341 19.7947 0.712452 19.2361 0.263158 18.2923C0.141207 18.0034 0.0898588 17.6888 0 17.387Z" fill="white"/>
</svg>
