<?xml version="1.0" encoding="utf-8"?>
<!-- Generator: Adobe Illustrator 27.1.1, SVG Export Plug-In . SVG Version: 6.00 Build 0)  -->
<svg version="1.1" id="Laag_1" xmlns="http://www.w3.org/2000/svg" xmlns:xlink="http://www.w3.org/1999/xlink" x="0px" y="0px"
	 viewBox="0 0 311.6 311.5" style="enable-background:new 0 0 311.6 311.5;" xml:space="preserve">
<style type="text/css">
	.st0{fill:#FFFFFF;}
</style>
<path d="M0,270.8c0-76.7,0-153.3,0-230c0.2-0.7,0.5-1.3,0.6-2C4.4,16,22.9,0.1,46.2,0c73-0.1,146-0.1,219,0.1
	c5.1,0,10.4,0.8,15.2,2.4c19.3,6.4,31.1,23.5,31.1,44.3c0,72.6,0,145.2,0,217.8c0,1,0,2-0.1,3c-1.3,17.7-9.6,30.9-25.5,38.9
	c-4.7,2.4-10.1,3.3-15.2,4.9c-26.2,0-52.3,0-78.5,0c0-36.7,0-73.3,0-110.1c15.6,0,30.8,0,46.2,0c3-18.2,6.1-36.4,9.1-54.8
	c-18.7,0-37,0-55.2,0c0-12.5,0-24.6,0-37c18.4,0,36.7,0,55,0c0-18.4,0-36.5,0-54.7c-18.2,0-36.1,0-54.1,0
	c-31.8,0.1-55.7,24.1-55.8,55.8c0,10.8,0,21.7,0,32.5c0,1.1,0,2.2,0,3.6c-12.4,0-24.4,0-36.4,0c0,18.3,0,36.4,0,54.7
	c12.1,0,24.1,0,36.4,0c0,36.9,0,73.5,0,110.1c-32.3,0-64.5,0-96.8,0c-0.6-0.2-1.1-0.4-1.7-0.5c-16.1-2.7-27.8-11.4-34.8-26.1
	C2.2,280.4,1.4,275.5,0,270.8z"/>
</svg>
