<?xml version="1.0" encoding="utf-8"?>
<!-- Generator: Adobe Illustrator 27.1.1, SVG Export Plug-In . SVG Version: 6.00 Build 0)  -->
<svg version="1.1" id="Laag_1" xmlns="http://www.w3.org/2000/svg" xmlns:xlink="http://www.w3.org/1999/xlink" x="0px" y="0px"
	 viewBox="0 0 321.3 321.8" style="enable-background:new 0 0 321.3 321.8;" xml:space="preserve">
<style type="text/css">
	.st0{fill:#FFFFFF;}
</style>
<g>
	<path d="M209.3,321.8c-32.3,0-64.6,0-96.9,0c-2-0.2-3.9-0.4-5.9-0.5c-12.8-0.3-25.5-0.8-38.1-3.9C41.8,311,22,295.9,10.2,270.9
		c-7.3-15.4-9.5-32.1-9.7-48.9c-0.4-34.7-0.7-69.4-0.5-104c0.1-16.6,0.2-33.4,4.2-49.7c7-28.4,23.6-48.8,51-59.9
		c14.7-6,30.2-7.6,45.9-7.8c32.7-0.4,65.4-0.6,98.1-0.5c17.2,0.1,34.4,0,51.3,3.6c31.2,6.8,53.1,24.7,64.1,55
		c5.3,14.6,6.5,29.8,6.6,45.2c0.1,37.1,0.2,74.2-0.1,111.3c-0.1,10.5-0.9,21.2-2.5,31.6c-3.3,21.3-12.9,39.5-29.8,53.4
		c-16.4,13.5-35.8,19-56.7,20.4C224.5,321,216.9,321.4,209.3,321.8z M160.7,293.3c0-0.2,0-0.3,0-0.5c8.5,0,17,0.3,25.5-0.1
		c18.3-0.7,36.8-0.4,54.9-2.7c24.8-3.1,41.5-17.3,47.6-42c2.4-9.8,3.3-20.1,3.5-30.2c0.6-32.7,0.7-65.4,0.5-98.1
		c-0.1-13-0.7-26-2.3-38.9c-3.3-25.8-19.4-43.3-45-48.4c-11-2.2-22.5-2.9-33.7-3c-28.2-0.5-56.4-0.4-84.6-0.3
		c-16.1,0.1-32.3-0.2-48.3,2.7C54.4,36.2,37.6,51.7,32.6,76c-2.2,10.5-2.9,21.4-3.1,32.1c-0.5,25.8-0.8,51.6-0.5,77.3
		c0.2,18.2,0.7,36.5,2.4,54.6c1.7,17.7,10.1,32.3,25.6,41.9c10.5,6.5,22.3,9.1,34.4,9.5C114.6,292.4,137.6,292.8,160.7,293.3z"/>
	<path d="M78.1,160.7c0.1-45.7,37.3-82.8,82.9-82.6c45.8,0.2,82.8,37.4,82.5,82.9c-0.3,45.7-37.2,82.5-82.7,82.5
		C115.1,243.5,78,206.3,78.1,160.7z M107.2,160.9c0,29.7,23.9,53.5,53.5,53.6c29.7,0,53.6-23.7,53.7-53.4
		c0.1-29.8-23.9-53.8-53.7-53.7C131.1,107.3,107.2,131.2,107.2,160.9z"/>
	<path d="M266.1,74.7c0.1,10.7-8.4,19.3-18.9,19.4c-10.7,0.1-19.5-8.5-19.6-19.2c-0.1-10.7,8.4-19.2,19-19.4
		C257.4,55.5,266,63.9,266.1,74.7z"/>
</g>
</svg>
