<svg width="20" height="20" viewBox="0 0 20 20" fill="none" xmlns="http://www.w3.org/2000/svg">
<path d="M13.0281 20.0003C11.0175 20.0003 9.00691 20.0003 6.99633 20.0003C6.87183 19.9879 6.75356 19.9755 6.62907 19.9692C5.83231 19.9506 5.04177 19.9195 4.25745 19.7269C2.60168 19.3291 1.36919 18.3906 0.634672 16.8369C0.180268 15.8797 0.0433242 14.8418 0.0308748 13.7977C0.00597594 11.6411 -0.0126982 9.48446 -0.000248777 7.33406C0.00597594 6.30236 0.0122006 5.25824 0.261189 4.24519C0.696919 2.48011 1.73022 1.21225 3.43579 0.522376C4.35083 0.149474 5.31566 0.0500329 6.29294 0.0376029C8.32842 0.0127427 10.3639 0.000312611 12.3994 0.00652765C13.47 0.0127427 14.5407 0.00652766 15.5927 0.230269C17.5348 0.652892 18.898 1.76538 19.5827 3.64854C19.9126 4.55594 19.9873 5.50062 19.9935 6.45774C19.9998 8.76352 20.006 11.0693 19.9873 13.3751C19.9811 14.0277 19.9313 14.6927 19.8317 15.339C19.6263 16.6628 19.0287 17.794 17.9767 18.6579C16.9559 19.4969 15.7483 19.8387 14.4473 19.9257C13.9742 19.9506 13.5012 19.9755 13.0281 20.0003ZM10.0029 18.229C10.0029 18.2166 10.0029 18.2104 10.0029 18.198C10.532 18.198 11.0611 18.2166 11.5902 18.1917C12.7293 18.1482 13.8809 18.1669 15.0075 18.0239C16.5513 17.8313 17.5908 16.9487 17.9705 15.4136C18.1199 14.8045 18.1759 14.1644 18.1884 13.5367C18.2257 11.5044 18.2319 9.47203 18.2195 7.43972C18.2133 6.63176 18.1759 5.82381 18.0763 5.02207C17.8709 3.41859 16.8687 2.33095 15.2752 2.01399C14.5905 1.87726 13.8746 1.83375 13.1775 1.82753C11.4221 1.79646 9.66673 1.80267 7.91136 1.80889C6.90918 1.8151 5.90078 1.79646 4.90483 1.9767C3.386 2.25016 2.34024 3.21349 2.02901 4.72374C1.89206 5.37632 1.84849 6.05376 1.83604 6.71877C1.80492 8.32225 1.78624 9.92573 1.80492 11.523C1.81737 12.6541 1.84849 13.7915 1.95431 14.9164C2.06013 16.0165 2.58301 16.9239 3.54784 17.5205C4.20143 17.9245 4.93595 18.0861 5.68914 18.1109C7.13327 18.1731 8.56496 18.198 10.0029 18.229Z" fill="white"/>
<path d="M4.86152 9.98755C4.86775 7.14728 7.18334 4.8415 10.0218 4.85393C12.8727 4.86636 15.1759 7.17836 15.1572 10.0062C15.1385 12.8465 12.8416 15.1336 10.0094 15.1336C7.16467 15.1336 4.8553 12.8216 4.86152 9.98755ZM6.67291 9.99998C6.67291 11.8459 8.16062 13.325 10.0031 13.3312C11.8519 13.3312 13.3396 11.8583 13.3458 10.0124C13.352 8.16033 11.8581 6.66872 10.0031 6.67494C8.16062 6.66872 6.67291 8.15412 6.67291 9.99998Z" fill="white"/>
<path d="M16.564 4.64263C16.5702 5.30764 16.0411 5.84213 15.3875 5.84835C14.7215 5.85456 14.1737 5.32007 14.1675 4.65506C14.1612 3.99005 14.6903 3.46177 15.3502 3.44934C16.0224 3.44934 16.5578 3.9714 16.564 4.64263Z" fill="white"/>
</svg>
