<svg width="246" height="109" viewBox="0 0 246 109" fill="none" xmlns="http://www.w3.org/2000/svg">
<g clip-path="url(#clip0_3_30)">
<path d="M46.1496 68.0632H37.5724V27.3242L46.1496 23.7644V68.0632Z" fill="#FFEED8"/>
<path d="M52.4964 30.1423V32.8945H61.0736V30.1423H52.4964Z" fill="#FFEED8"/>
<path d="M77.244 42.0739C78.1952 40.6566 79.294 39.4865 80.5404 38.5472C81.7868 37.6078 83.1316 37.1464 84.5748 37.1464C86.3624 37.1464 88.0024 37.443 89.4948 38.0528C90.9872 38.6625 92.2664 39.4866 93.3488 40.5578C94.4312 41.6125 95.2676 42.8815 95.8744 44.3317C96.4812 45.7985 96.7764 47.3476 96.7764 49.0121V68.0632H88.1992V50.0174C88.1992 48.9791 88.1336 47.9409 87.986 46.9191C87.8384 45.8973 87.5596 44.9909 87.1496 44.1999C86.7396 43.4088 86.1328 42.7661 85.3456 42.2552C84.5584 41.7608 83.4924 41.5136 82.1804 41.5136C81.262 41.5136 80.3928 41.7773 79.5728 42.3211C78.7364 42.865 77.982 43.6066 77.2768 44.5789V68.0632H68.6996V37.6902L77.2768 37.6243V42.0739H77.244Z" fill="#FFEED8"/>
<path d="M126.69 65.3275C125.575 66.2009 124.246 66.9096 122.705 67.4534C121.163 67.9973 119.392 68.2609 117.358 68.2609C114.915 68.2609 112.717 67.8489 110.766 67.0414C108.814 66.2339 107.158 65.1132 105.796 63.6959C104.435 62.2786 103.386 60.6306 102.664 58.7354C101.942 56.8402 101.582 54.8131 101.582 52.6377C101.582 50.3799 101.959 48.287 102.73 46.3588C103.5 44.4306 104.583 42.7331 105.993 41.2994C107.404 39.8656 109.109 38.7449 111.094 37.9209C113.078 37.1134 115.292 36.7014 117.752 36.7014C119.786 36.7014 121.524 36.9651 122.984 37.5089C124.427 38.0528 125.673 38.7449 126.723 39.5689V23.7644L135.3 20.386V68.1291L126.69 65.3275ZM110.011 52.1928C110.011 56.3623 110.848 59.5594 112.504 61.7842C114.16 64.0091 116.424 65.311 119.277 65.69C121.098 65.9043 122.606 65.6571 123.82 64.9319C125.017 64.2233 125.968 63.251 126.674 61.9985V41.7608C126.05 40.8379 125.23 40.0963 124.214 39.503C123.197 38.9262 121.918 38.6296 120.392 38.6296C118.441 38.6296 116.801 39.0086 115.472 39.7502C114.144 40.4918 113.078 41.4971 112.274 42.7496C111.471 44.0021 110.88 45.4524 110.536 47.1004C110.192 48.7484 110.011 50.4459 110.011 52.1928Z" fill="#FFEED8"/>
<path d="M172.512 58.6365C172.184 59.889 171.642 61.1415 170.888 62.3775C170.134 63.63 169.15 64.7507 167.936 65.723C166.706 66.6953 165.246 67.4864 163.524 68.0961C161.802 68.7059 159.785 69.0026 157.456 69.0026C151.815 69.0026 147.6 67.6017 144.796 64.8166C141.991 62.0314 140.597 58.0927 140.597 53.0003C140.597 50.6271 140.925 48.4682 141.598 46.5236C142.254 44.5789 143.254 42.9144 144.582 41.5301C145.911 40.1293 147.551 39.058 149.519 38.2835C151.487 37.5089 153.799 37.1134 156.456 37.0639C159.359 37.031 161.835 37.4265 163.885 38.2835C165.935 39.1404 167.624 40.3435 168.92 41.8762C170.232 43.4253 171.183 45.2381 171.79 47.3146C172.397 49.3911 172.692 51.6489 172.692 54.0715H149.437C149.601 55.357 149.814 56.8072 150.093 58.4223C150.355 60.0208 150.782 61.537 151.372 62.9543C151.946 64.3716 152.733 65.5582 153.701 66.514C154.668 67.4699 155.931 67.9478 157.456 67.9478C158.49 67.9478 159.359 67.6677 160.031 67.1073C160.72 66.547 161.278 65.8219 161.704 64.9155C162.147 64.0255 162.508 63.0202 162.786 61.9161C163.082 60.8119 163.36 59.7242 163.656 58.6365H172.512ZM163.688 52.44C163.82 50.726 163.836 49.0286 163.754 47.3476C163.672 45.6666 163.377 44.1339 162.885 42.7826C162.393 41.4312 161.638 40.327 160.622 39.4701C159.605 38.6131 158.227 38.1846 156.489 38.1846C155.21 38.1846 154.127 38.4812 153.258 39.091C152.389 39.7008 151.684 40.4589 151.142 41.3653C150.601 42.2882 150.208 43.3099 149.962 44.4306C149.716 45.5512 149.535 46.6554 149.437 47.7101C149.338 48.7649 149.289 49.7372 149.306 50.5777C149.322 51.4347 149.338 52.0444 149.338 52.4235H163.688V52.44Z" fill="#FFEED8"/>
<path d="M107.371 77.0614C109.618 77.0614 111.7 77.4075 113.652 78.0996C115.604 78.7918 117.293 79.7971 118.72 81.132C120.146 82.4669 121.262 84.1314 122.082 86.1255C122.885 88.1196 123.295 90.4103 123.295 92.9977C123.295 95.6181 122.885 97.9253 122.082 99.9029C121.278 101.881 120.146 103.545 118.72 104.896C117.293 106.248 115.604 107.27 113.652 107.962C111.7 108.654 109.601 109 107.371 109C105.14 109 103.008 108.687 100.991 108.061C98.974 107.434 97.2356 106.462 95.7432 105.16C94.2508 103.842 93.0536 102.177 92.168 100.167C91.2824 98.1395 90.8232 95.7664 90.8232 93.0142C90.8232 90.262 91.266 87.8889 92.168 85.8948C93.0536 83.9007 94.2508 82.2362 95.7432 80.9342C97.2356 79.6158 98.9904 78.6599 100.991 78.0337C103.008 77.3745 105.124 77.0614 107.371 77.0614ZM107.371 107.813C108.158 107.813 108.929 107.55 109.7 107.006C110.47 106.462 111.159 105.605 111.782 104.451C112.406 103.281 112.914 101.749 113.308 99.8535C113.701 97.9583 113.898 95.684 113.898 93.0142C113.898 90.5092 113.701 88.3338 113.308 86.488C112.914 84.6423 112.406 83.0931 111.782 81.8571C111.159 80.6211 110.47 79.7147 109.7 79.1379C108.929 78.5611 108.158 78.2644 107.371 78.2644C106.584 78.2644 105.747 78.5281 104.878 79.072C104.009 79.6158 103.205 80.4728 102.451 81.6264C101.696 82.7965 101.09 84.3127 100.614 86.1914C100.138 88.0701 99.8924 90.3444 99.8924 92.9977C99.8924 95.8323 100.122 98.189 100.614 100.084C101.09 101.979 101.696 103.496 102.451 104.649C103.189 105.803 104.009 106.61 104.878 107.088C105.747 107.566 106.584 107.813 107.371 107.813Z" fill="#FFEED8"/>
<path d="M142.811 77.0614C145.058 77.0614 147.141 77.4075 149.092 78.0996C151.044 78.7918 152.733 79.7971 154.16 81.132C155.587 82.4669 156.702 84.1314 157.522 86.1255C158.326 88.1196 158.736 90.4103 158.736 92.9977C158.736 95.6181 158.326 97.9253 157.522 99.9029C156.718 101.881 155.587 103.545 154.16 104.896C152.733 106.248 151.044 107.27 149.092 107.962C147.141 108.654 145.058 109 142.811 109C140.564 109 138.449 108.687 136.432 108.061C134.414 107.434 132.676 106.462 131.184 105.16C129.691 103.842 128.494 102.177 127.608 100.167C126.723 98.1395 126.28 95.7664 126.28 93.0142C126.28 90.262 126.723 87.8889 127.608 85.8948C128.494 83.9007 129.691 82.2362 131.184 80.9342C132.676 79.6158 134.431 78.6599 136.432 78.0337C138.449 77.3745 140.581 77.0614 142.811 77.0614ZM142.811 107.813C143.598 107.813 144.369 107.55 145.14 107.006C145.911 106.462 146.6 105.605 147.223 104.451C147.846 103.281 148.354 101.749 148.748 99.8535C149.142 97.9583 149.338 95.684 149.338 93.0142C149.338 90.5092 149.142 88.3338 148.748 86.488C148.354 84.6423 147.846 83.0931 147.223 81.8571C146.6 80.6211 145.911 79.7147 145.14 79.1379C144.369 78.5611 143.598 78.2644 142.811 78.2644C142.024 78.2644 141.188 78.5281 140.318 79.072C139.449 79.6158 138.646 80.4728 137.891 81.6264C137.153 82.7965 136.53 84.3127 136.054 86.1914C135.579 88.0701 135.333 90.3444 135.333 92.9977C135.333 95.8323 135.579 98.189 136.054 100.084C136.53 101.979 137.137 103.496 137.891 104.649C138.646 105.803 139.449 106.61 140.318 107.088C141.188 107.566 142.024 107.813 142.811 107.813Z" fill="#FFEED8"/>
<path d="M173.528 82.0549C174.48 80.6376 175.578 79.4675 176.825 78.5281C178.071 77.5887 179.416 77.1273 180.876 77.1273C183.237 77.1273 185.304 77.6217 187.091 78.627C188.879 79.6323 190.289 80.9837 191.322 82.6811C192.274 81.1485 193.422 79.83 194.75 78.7423C196.078 77.6547 197.505 77.1108 199.047 77.1108C200.834 77.1108 202.474 77.4075 203.967 78.0172C205.459 78.627 206.738 79.451 207.821 80.5222C208.903 81.5769 209.74 82.8459 210.346 84.2962C210.953 85.7629 211.248 87.3121 211.248 88.9766V108.044H202.671V89.9983C202.671 88.9601 202.606 87.9218 202.458 86.9C202.31 85.8783 202.032 84.9719 201.622 84.1808C201.212 83.3898 200.605 82.747 199.818 82.2362C199.03 81.7253 197.981 81.4945 196.652 81.4945C195.816 81.4945 195.029 81.7253 194.258 82.1867C193.487 82.6482 192.782 83.2909 192.11 84.1314C192.766 85.7135 193.11 87.345 193.11 89.0095V108.077H184.533V89.9983C184.533 88.9601 184.467 87.9218 184.32 86.9C184.172 85.8783 183.893 84.9719 183.483 84.1808C183.073 83.3898 182.466 82.747 181.679 82.2362C180.892 81.7417 179.842 81.4945 178.514 81.4945C177.596 81.4945 176.726 81.7582 175.906 82.3021C175.07 82.8459 174.316 83.5875 173.61 84.5599V108.061H165.033V77.6876L173.61 77.6217V82.0549H173.528Z" fill="#FFEED8"/>
<path d="M218.153 48.1716C218.218 47.9409 218.268 47.7102 218.317 47.463C218.546 47.4959 218.71 47.5454 218.907 47.5948C218.973 47.2817 219.022 46.9686 219.088 46.6719C219.104 46.5566 219.186 46.4412 219.252 46.3423C219.317 46.2434 219.448 46.1445 219.448 46.0457C219.448 45.8314 219.383 45.6172 219.35 45.3865C219.481 45.37 219.58 45.3535 219.744 45.3041C219.678 44.9415 219.612 44.5954 219.547 44.2493C219.826 44.2988 220.121 44.3812 220.006 43.9032C219.94 43.656 219.973 43.3759 219.957 43.0957C220.432 43.1616 220.465 42.8815 220.383 42.5189C220.35 42.3871 220.268 42.1893 220.301 42.1399C220.826 41.7279 220.285 41.4147 220.236 41.0522C220.629 40.8214 220.547 40.4589 220.088 40.0798C220.186 39.7832 220.334 39.5525 220.301 39.3382C220.285 39.0745 220.121 38.8109 219.99 38.5307C220.088 38.4813 220.252 38.4153 220.432 38.3494C220.219 37.7891 220.006 37.2452 219.793 36.7014C219.875 36.4872 219.891 36.2564 219.842 36.0751C219.727 35.7126 219.612 35.3335 219.399 35.0204C219.088 34.559 219.17 33.9162 218.678 33.5372C218.432 33.3559 218.136 33.0758 218.136 32.845C218.136 32.3836 217.89 32.4001 217.628 32.3341C217.53 32.1693 217.398 32.021 217.251 31.9386C216.857 31.6914 216.496 31.4277 216.086 31.23C215.496 30.9004 214.938 30.5048 214.496 29.9775C214.414 29.8951 214.25 29.8951 214.135 29.8621C214.348 29.3677 213.889 29.3018 213.676 29.2853C213.167 29.2359 212.626 29.3183 212.118 29.3347C211.904 29.3512 211.691 29.2688 211.494 29.3018C210.724 29.4336 209.986 29.5984 209.362 29.7303C209.51 29.4995 209.822 29.1699 210.002 28.7744C210.888 26.8792 211.757 24.951 212.642 23.0393C212.872 22.5614 212.265 21.9351 211.79 21.4243C210.543 25.363 209.002 27.9669 206.689 31.3948C206 30.2082 206.132 30.1258 205.853 28.9227C205.705 28.3459 205.492 27.7197 205.148 27.2418C204.721 26.6814 204.065 26.3189 203.36 26.1376C203.163 26.1046 202.966 26.1376 202.786 26.1211C202.392 26.1376 202.032 26.0387 201.638 26.0057C201.425 25.9893 201.195 26.1211 201.015 26.0552C200.638 25.8739 200.539 26.0552 200.556 26.4507C200.26 26.0552 200.014 25.9233 199.654 26.2035C199.555 26.2694 199.391 26.2035 199.244 26.2365C198.916 26.3024 198.44 25.9893 198.391 26.5661C197.948 26.632 197.538 26.7144 197.095 26.7803C197.112 26.9122 197.144 26.9946 197.128 27.077C197.128 27.1594 197.095 27.2253 197.095 27.2253C196.833 27.2253 196.538 27.1594 196.488 27.2418C196.275 27.6208 195.947 27.6867 195.554 27.6867C195.406 27.7032 195.242 27.7197 195.111 27.7856C194.717 28.0328 194.34 28.2965 193.996 28.5931C193.815 28.7415 193.717 28.9722 193.586 29.1535C193.618 29.1864 193.668 29.2194 193.7 29.2523C192.864 29.4996 192.733 29.6644 192.798 30.0599C192.487 30.34 192.241 30.5708 191.995 30.785C191.946 30.818 191.88 30.8839 191.847 30.9168C191.388 31.2135 190.912 31.5101 190.437 31.8233C190.65 32.0375 190.798 32.1858 190.945 32.3341C190.962 32.3341 190.978 32.3341 191.011 32.3177C191.06 32.2353 191.142 32.1199 191.191 31.9881C191.273 32.2847 191.142 32.5154 190.929 32.4825C190.584 32.433 189.764 32.9274 189.633 33.2241C189.699 33.2406 189.797 33.2735 189.896 33.29C189.486 33.669 189.125 34.0151 188.731 34.3447C188.895 34.5425 188.994 34.6414 189.092 34.7403C188.846 35.0534 188.633 35.3171 188.436 35.5807C188.649 35.8444 188.813 36.0422 188.994 36.2729C188.305 36.1411 188.174 36.6684 188.01 36.9486C188.124 37.2947 188.338 37.6737 188.256 37.7396C187.829 38.1846 187.813 38.679 187.796 39.2229C187.977 39.2393 188.141 39.2723 188.256 39.2723C187.96 39.5525 187.682 39.8162 187.386 40.0798C187.419 40.1128 187.436 40.1458 187.468 40.1787C187.632 40.1293 187.796 40.0798 187.944 40.0469C187.862 40.1952 187.698 40.2611 187.632 40.3765C187.386 40.7555 187.173 41.151 186.96 41.5466C187.075 41.6619 187.206 41.7938 187.255 41.8267C186.944 42.0739 186.681 42.3047 186.386 42.5354C186.534 42.7167 186.632 42.832 186.714 42.9309C186.665 42.9309 186.616 42.9144 186.583 42.9144C186.402 43.4583 186.222 43.9856 186.058 44.513C187.239 44.925 186.288 45.5677 186.337 46.1281C186.484 46.1281 186.648 46.1445 186.78 46.161V46.1445C187.124 46.2599 187.026 46.4906 186.927 46.7214C186.812 47.051 186.665 47.3641 186.501 47.7431C186.944 47.809 187.37 47.8585 187.796 47.9079C187.255 48.1881 187.14 48.6001 187.173 49.1439C187.386 49.0945 187.567 49.0615 187.813 49.0121C187.698 49.4241 187.6 49.7702 187.501 50.1163C187.747 50.1163 187.911 50.1163 188.108 50.0998L187.616 51.171C187.846 51.204 187.993 51.2204 188.108 51.2369C188.124 51.3358 188.141 51.4676 188.141 51.5665L201.474 45.7985C201.95 45.6007 202.507 44.8591 202.786 44.4141C203.426 43.2935 203.229 42.2552 204.803 41.7443L212.987 38.4813C214.151 38.1187 214.086 39.1899 213.823 39.3053L205.262 43.3264C204.967 43.4583 204.836 43.7714 204.951 44.0186C205 44.1175 205.082 44.2164 205.197 44.2493C205.344 44.2988 205.508 44.2988 205.672 44.2328L214.036 40.2941C214.725 39.9645 215.283 41.0192 214.528 41.3818L206.164 45.3205C205.886 45.4524 205.754 45.7655 205.853 46.0127C205.968 46.2599 206.279 46.3423 206.574 46.2105L215.135 42.2058C215.381 42.0739 216.234 42.7167 215.217 43.3759L207.476 47.5783C206.05 48.4847 205.394 47.6442 204.082 47.43C203.573 47.3311 202.72 47.3146 202.228 47.5454H202.212C203.491 50.347 206.64 56.5271 207.821 58.9497C207.854 59.0156 207.886 59.065 207.903 59.1309C208.05 58.8673 208.132 58.5541 208.608 58.8178C208.723 58.4717 208.805 58.1751 208.903 57.8455C209.034 57.9938 209.149 58.1256 209.313 58.274C209.494 57.9279 209.658 57.6312 209.854 57.2852C210.018 57.4335 210.182 57.5653 210.33 57.7301C210.56 57.384 210.789 57.0215 211.002 56.6754C211.15 56.7908 211.298 56.8896 211.462 57.0215C211.724 56.6259 211.97 56.2634 212.216 55.9008C212.314 55.9173 212.446 55.9667 212.577 55.9832C212.642 55.7031 212.708 55.4559 212.774 55.1757C212.921 55.2251 213.052 55.2581 213.233 55.324C213.348 54.8296 213.446 54.3682 213.544 53.9067C213.643 53.9726 213.774 54.055 213.872 54.1374C214.02 53.7584 214.151 53.4288 214.266 53.0992C214.315 53.1322 214.381 53.1321 214.43 53.1651C214.381 52.9179 214.332 52.6707 214.282 52.44C214.414 52.5059 214.545 52.5718 214.709 52.6542C214.791 52.3081 214.856 52.0115 214.938 51.7148C215.496 51.8137 215.152 51.204 215.463 51.0556C215.627 51.1216 215.808 51.1875 216.037 51.2534C216.119 50.9238 216.218 50.5942 216.3 50.2481C216.972 50.4129 216.66 49.7537 216.89 49.523C217.087 49.5889 217.284 49.6383 217.497 49.6878C217.562 49.3911 217.595 49.111 217.661 48.8473C217.792 48.8473 217.94 48.8308 218.038 48.8308C218.071 48.6166 218.12 48.3859 218.153 48.1716ZM196.849 45.3041C194.274 41.0027 191.716 34.7567 195.718 32.7626C196.226 32.5154 196.324 32.5484 196.538 33.1417L200.834 44.8261L198.784 45.7161C198.227 46.0457 197.194 45.8644 196.849 45.3041ZM200.195 48.5671L189.42 53.7914C189.486 54.2693 189.535 54.7142 189.584 55.1757C189.748 55.1263 189.928 55.0768 190.142 55.0109C190.256 55.2581 190.338 55.6866 190.47 55.7031C191.109 55.7855 190.847 56.2963 190.978 56.6095C191.027 56.7413 191.011 56.9391 191.027 57.1698C191.339 56.9885 191.601 56.8402 191.749 56.7743C191.798 57.2852 191.864 57.8125 191.929 58.3234C191.946 58.3564 192.093 58.4223 192.192 58.4223C192.372 58.4058 192.552 58.3729 192.7 58.3564C192.602 58.5706 192.388 58.8178 192.372 59.065C192.356 59.4111 192.487 59.7737 192.552 60.1362C192.7 60.1033 192.913 60.0538 193.028 60.0373C193.028 60.4823 193.012 60.8778 193.028 61.2734C193.208 61.1745 193.307 61.1086 193.422 61.0426C193.274 61.7183 193.356 62.1468 193.733 62.3116C193.799 62.8555 193.832 63.2839 193.897 63.696C193.93 63.7124 194.16 63.696 194.291 63.6795C194.324 63.8772 194.34 64.0915 194.373 64.2233C194.734 63.7619 195.111 63.3004 195.488 62.839C195.734 63.1686 195.914 62.9873 196.078 62.7566C196.226 62.5423 196.357 62.3116 196.538 62.0809C196.636 62.1963 196.718 62.2951 196.8 62.3775C196.997 62.1633 197.177 61.9491 197.358 61.7183C197.522 61.8996 197.62 62.0479 197.751 62.1963C198.112 61.8007 198.44 61.4382 198.768 61.0921C198.834 61.3228 198.916 61.57 199.014 61.8502C199.539 61.4711 199.998 61.158 200.457 60.8449C200.556 61.0756 200.621 61.2404 200.703 61.4546C201.146 61.158 201.556 60.8778 201.982 60.6142C202.36 61.3063 202.688 60.6801 203.065 60.5812C203.18 60.746 203.311 60.9108 203.458 61.1086C203.819 60.746 204.18 60.3999 204.541 60.0209C204.639 60.1033 204.738 60.1857 204.869 60.2845C205 60.0373 205.115 59.8066 205.262 59.5759C205.328 59.6748 205.41 59.7572 205.476 59.8396L200.195 48.5671Z" fill="#FFEED8"/>
<path d="M10.8076 57.0215C10.332 57.4005 9.758 57.6971 9.102 57.9279C8.446 58.1586 7.6752 58.2739 6.806 58.2739C5.7564 58.2739 4.8052 58.0927 3.9688 57.7466C3.1324 57.4005 2.4108 56.9226 1.8204 56.3128C1.23 55.703 0.7872 54.9944 0.4756 54.1704C0.164 53.3793 0 52.5059 0 51.5665C0 50.5942 0.164 49.7042 0.492 48.8638C0.82 48.0233 1.2956 47.2981 1.9024 46.6884C2.5092 46.0621 3.2472 45.5842 4.1 45.2381C4.9528 44.892 5.904 44.7107 6.97 44.7107C7.8392 44.7107 8.5936 44.8261 9.2168 45.0568C9.84 45.2876 10.3812 45.5842 10.824 45.9468V39.1404L14.514 37.6902V58.2245L10.8076 57.0215ZM3.6408 51.3852C3.6408 53.1816 4.0016 54.5494 4.7068 55.5053C5.412 56.4611 6.396 57.0215 7.626 57.1863C8.4132 57.2687 9.0692 57.1698 9.5776 56.8566C10.1024 56.56 10.5124 56.1315 10.8076 55.5877V46.8861C10.5452 46.4906 10.1844 46.1775 9.758 45.9138C9.3152 45.6666 8.774 45.5348 8.118 45.5348C7.2816 45.5348 6.5764 45.6996 6.0024 46.0127C5.4284 46.3423 4.9692 46.7708 4.6248 47.2981C4.2804 47.842 4.0344 48.4517 3.8704 49.1604C3.7064 49.902 3.6408 50.6271 3.6408 51.3852Z" fill="#FFEED8"/>
<path d="M30.5204 54.1539C30.3728 54.6978 30.1432 55.2251 29.8316 55.769C29.5036 56.3128 29.0936 56.7907 28.5688 57.2027C28.044 57.6312 27.4044 57.9608 26.6664 58.2245C25.9284 58.4882 25.0592 58.62 24.0588 58.62C21.6316 58.62 19.8112 58.0268 18.614 56.8237C17.4168 55.6206 16.81 53.9232 16.81 51.7478C16.81 50.726 16.9576 49.8031 17.2364 48.9626C17.5152 48.1222 17.9416 47.4135 18.5156 46.8037C19.0896 46.2105 19.7948 45.7325 20.6476 45.4029C21.5004 45.0733 22.4844 44.892 23.6324 44.8756C24.8788 44.8591 25.9448 45.0404 26.8304 45.4029C27.716 45.7655 28.4376 46.2929 28.9952 46.9521C29.5528 47.6113 29.9628 48.4023 30.2252 49.2923C30.4876 50.1822 30.6188 51.1545 30.6188 52.1928H20.6148C20.6804 52.7531 20.7788 53.3793 20.8936 54.055C21.0084 54.7472 21.1888 55.3899 21.4348 55.9997C21.6808 56.6095 22.0252 57.1203 22.4352 57.5323C22.8616 57.9444 23.3864 58.1586 24.0588 58.1586C24.5016 58.1586 24.8788 58.0432 25.174 57.796C25.4692 57.5488 25.7152 57.2357 25.8956 56.8567C26.076 56.4776 26.24 56.0491 26.3712 55.5712C26.5024 55.0933 26.6172 54.6318 26.7484 54.1539H30.5204ZM26.732 51.4841C26.7812 50.7425 26.7976 50.0174 26.7648 49.2923C26.732 48.5671 26.6008 47.9079 26.3876 47.3311C26.1744 46.7543 25.8464 46.2764 25.4036 45.9138C24.9608 45.5512 24.3704 45.37 23.6324 45.37C23.0748 45.37 22.6156 45.5018 22.2384 45.7655C21.8612 46.0292 21.566 46.3588 21.3364 46.7543C21.1068 47.1498 20.9428 47.5948 20.828 48.0727C20.7132 48.5506 20.6476 49.0286 20.5984 49.49C20.5492 49.9515 20.5328 50.3635 20.5492 50.726C20.5656 51.0886 20.5656 51.3523 20.5656 51.5171H26.732V51.4841Z" fill="#FFEED8"/>
<path d="M176.021 7.91051L179.957 5.53736C181.417 4.64743 182.778 5.07591 183.467 6.21305C184.074 7.21834 183.828 8.28955 183.172 8.89932C184.106 8.52027 185.304 8.94876 185.894 9.93757C186.632 11.1736 186.353 12.6074 184.861 13.5138L180.81 15.9528L176.021 7.91051ZM181.663 9.03116C182.384 8.60268 182.532 7.91051 182.171 7.31722C181.81 6.70745 181.138 6.50969 180.416 6.95466L178.17 8.30603L179.416 10.3825L181.663 9.03116ZM183.795 12.4755C184.566 12.0141 184.762 11.3219 184.352 10.6133C183.992 10.0035 183.27 9.75629 182.466 10.2342L180.17 11.6186L181.499 13.8434L183.795 12.4755Z" fill="#FFEED8"/>
<path d="M193.799 6.4767L192.208 6.80631L192.913 10.2342L191.306 10.5638L189.42 1.4008L193.438 0.560314C195.242 0.18127 196.669 1.12064 197.013 2.8181C197.358 4.44964 196.472 5.55381 195.406 5.96582L198.391 9.09705L196.538 9.4761L193.799 6.4767ZM193.504 2.01057L191.306 2.47202L191.913 5.38901L194.11 4.92757C195.012 4.7298 195.554 4.02116 195.373 3.1477C195.193 2.27425 194.422 1.82929 193.504 2.01057Z" fill="#FFEED8"/>
<path d="M208.821 7.92697L204.442 7.35017L203.524 9.04763L201.753 8.8169L206.607 0L208.624 0.263683L211.052 10.0364L209.28 9.80572L208.821 7.92697ZM205.082 5.98231L208.542 6.44376L207.427 1.51618L205.082 5.98231Z" fill="#FFEED8"/>
<path d="M215.922 9.17946C216.201 10.0859 216.824 11.0747 217.989 11.6515C219.186 12.2448 219.957 11.8987 220.236 11.3384C220.613 10.5803 219.826 9.92107 218.94 9.1465C217.743 8.12473 216.332 6.92167 217.218 5.14181C217.907 3.75748 219.645 3.29603 221.466 4.20244C222.778 4.84517 223.614 5.78454 224.024 6.93815L222.646 7.61384C222.318 6.64151 221.58 5.88342 220.695 5.45494C219.826 5.02645 219.071 5.15829 218.76 5.80102C218.432 6.46023 219.186 7.08648 220.055 7.84457C221.252 8.88282 222.696 10.1353 221.794 11.9481C221.105 13.349 219.53 14.0576 217.284 12.9369C215.742 12.1624 214.889 11.0747 214.545 9.90459L215.922 9.17946Z" fill="#FFEED8"/>
<path d="M226.074 15.3266C226.058 16.2659 226.353 17.4031 227.288 18.326C228.239 19.2653 229.092 19.1665 229.518 18.738C230.108 18.1282 229.567 17.2548 228.977 16.2495C228.157 14.8981 227.189 13.3325 228.567 11.9152C229.649 10.811 231.453 10.9099 232.896 12.3437C233.93 13.3654 234.454 14.519 234.487 15.7386L232.962 15.9528C232.946 14.9146 232.47 13.9752 231.781 13.283C231.092 12.6073 230.322 12.5085 229.846 13.0029C229.338 13.5302 229.846 14.3707 230.436 15.343C231.256 16.7109 232.24 18.3424 230.814 19.7927C229.731 20.9134 228.026 21.0946 226.222 19.3148C224.992 18.1117 224.532 16.7933 224.549 15.5903L226.074 15.3266Z" fill="#FFEED8"/>
<path d="M239.686 20.9463L242.654 26.632L241.375 27.3077L239.178 23.0723L237.029 24.1929L239.194 28.3459L237.915 29.0216L235.75 24.8686L233.454 26.0717L235.652 30.3071L234.372 30.9828L231.404 25.2971L239.686 20.9463Z" fill="#FFEED8"/>
<path d="M239.768 37.9044L239.506 36.2894L236.062 36.8497L235.799 35.2182L245.016 33.7185L245.672 37.7891C245.967 39.6184 244.967 41.0027 243.278 41.2829C241.638 41.5466 240.572 40.6072 240.211 39.536L236.964 42.3871L236.668 40.5083L239.768 37.9044ZM244.212 37.8056L243.852 35.5807L240.916 36.0587L241.277 38.2835C241.424 39.2064 242.113 39.7667 242.999 39.6349C243.884 39.4865 244.36 38.7285 244.212 37.8056Z" fill="#FFEED8"/>
<path d="M246 47.8255L245.836 49.4571L236.554 48.5507L236.718 46.9191L246 47.8255Z" fill="#FFEED8"/>
<path d="M244.508 56.6095L242.326 62.6412L240.965 62.1468L242.589 57.6642L240.309 56.8402L238.718 61.2404L237.357 60.746L238.948 56.3458L236.521 55.4559L234.897 59.9385L233.536 59.4441L235.717 53.4123L244.508 56.6095Z" fill="#FFEED8"/>
<path d="M85.0504 86.2079C84.2796 84.2632 83.1972 82.5823 81.7868 81.1485C80.3764 79.7147 78.6708 78.5941 76.6864 77.77C74.702 76.9625 72.4716 76.5505 70.028 76.5505C67.9944 76.5505 66.256 76.8142 64.8128 77.358C63.3532 77.9019 62.1232 78.5941 61.09 79.4181V37.7067H52.5128V107.995L61.09 105.177C62.2052 106.05 63.5336 106.759 65.0752 107.303C66.6168 107.846 68.388 108.11 70.4216 108.11C72.8652 108.11 75.0628 107.698 77.0144 106.891C78.966 106.083 80.6224 104.962 81.9836 103.545C83.3448 102.128 84.3944 100.48 85.1324 98.5845C85.854 96.6893 86.2148 94.6623 86.2148 92.4869C86.1984 90.2456 85.8212 88.1526 85.0504 86.2079ZM75.2596 101.65C73.6032 103.875 71.34 105.177 68.4864 105.556C66.666 105.77 65.1408 105.506 63.9436 104.798C62.7464 104.089 61.7788 103.117 61.09 101.864V81.6264C61.7132 80.7035 62.5332 79.9619 63.55 79.3686C64.5668 78.7918 65.846 78.4952 67.3712 78.4952C69.3228 78.4952 70.9628 78.8742 72.2912 79.6158C73.6196 80.3739 74.6856 81.3627 75.4892 82.6152C76.2928 83.8677 76.8832 85.318 77.2276 86.966C77.572 88.614 77.7524 90.3115 77.7524 92.0584C77.736 96.2279 76.916 99.425 75.2596 101.65Z" fill="#FFEED8"/>
</g>
<defs>
<clipPath id="clip0_3_30">
<rect width="246" height="109" fill="white"/>
</clipPath>
</defs>
</svg>
