<svg width="17" height="14" viewBox="0 0 17 14" fill="none" xmlns="http://www.w3.org/2000/svg">
<g clip-path="url(#clip0_16_11)">
<path d="M16.6233 7.85621L10.4482 13.6413C10.1951 13.8785 9.86161 14 9.52815 14C9.1947 14 8.86124 13.8843 8.61424 13.6413C8.10788 13.167 8.10788 12.3975 8.61424 11.9232L12.5725 8.2091H1.29677C0.580458 8.2091 0 7.6653 0 6.99423C0 6.32315 0.580458 5.77935 1.29677 5.77935H12.5725L8.61424 2.0653C8.10788 1.59092 8.10788 0.821498 8.61424 0.347118C9.1206 -0.127262 9.94188 -0.127262 10.4482 0.347118L16.6233 6.13224C17.1297 6.61241 17.1297 7.38761 16.6233 7.85621Z" fill="white"/>
</g>
<defs>
<clipPath id="clip0_16_11">
<rect width="17" height="14" fill="white"/>
</clipPath>
</defs>
</svg>
